<?xml version="1.0" encoding="iso-8859-1"?>
<!-- Uploaded to: SVG Repo, www.svgrepo.com, Generator: SVG Repo Mixer Tools -->
<svg height="800px" width="800px" version="1.1" id="Layer_1" xmlns="http://www.w3.org/2000/svg" xmlns:xlink="http://www.w3.org/1999/xlink" 
	 viewBox="0 0 512 512" xml:space="preserve">
<path style="fill:#A5A5A5;" d="M503.916,83.537v32.337H8.084V83.537c0-23.812,19.304-43.116,43.116-43.116h409.6
	C484.612,40.421,503.916,59.725,503.916,83.537z"/>
<path style="fill:#E9F2F4;" d="M503.916,105.095v301.811c0,23.812-19.304,43.116-43.116,43.116H51.2
	c-23.812,0-43.116-19.304-43.116-43.116V105.095h64.674V29.642c0-11.906,9.651-21.558,21.558-21.558h86.232
	c11.906,0,21.558,9.651,21.558,21.558v75.453H503.916z"/>
<path style="fill:#C3E4ED;" d="M202.105,29.642v75.453H72.758V29.642c0-11.906,9.651-21.558,21.558-21.558h86.232
	C192.454,8.084,202.105,17.736,202.105,29.642z"/>
<path style="fill:#B2D1D8;" d="M180.547,45.811v21.558c0,5.953-4.826,10.779-10.779,10.779h-64.674
	c-5.953,0-10.779-4.826-10.779-10.779V45.811c0-5.953,4.826-10.779,10.779-10.779h64.674
	C175.722,35.032,180.547,39.857,180.547,45.811z"/>
<path style="fill:#CFDFE2;" d="M450.021,261.389v118.568c0,11.906-9.651,21.558-21.558,21.558H83.537
	c-11.906,0-21.558-9.651-21.558-21.558V261.389c0-11.906,9.651-21.558,21.558-21.558h344.926
	C440.37,239.832,450.021,249.483,450.021,261.389z M83.537,196.716h97.011c11.906,0,21.558-9.651,21.558-21.558
	s-9.651-21.558-21.558-21.558H83.537c-11.906,0-21.558,9.651-21.558,21.558S71.63,196.716,83.537,196.716z M256,196.716h172.463
	c11.906,0,21.558-9.651,21.558-21.558S440.37,153.6,428.463,153.6H256c-11.906,0-21.558,9.651-21.558,21.558
	S244.094,196.716,256,196.716z"/>
<path style="fill:#FC8059;" d="M450.021,385.347L450.021,385.347c0,11.906-9.651,21.558-21.558,21.558h-3.234l-19.885,66.284
	c-5.471,18.237-22.257,30.726-41.297,30.726h-97.526c-19.04,0-35.826-12.49-41.297-30.726l-19.885-66.284h-3.234
	c-11.906,0-21.558-9.651-21.558-21.558l0,0c0-11.906,9.651-21.558,21.558-21.558h226.358
	C440.37,363.789,450.021,373.441,450.021,385.347z"/>
<path style="fill:#AD3C1E;" d="M450.021,385.347L450.021,385.347c0,11.906-9.651,21.558-21.558,21.558H202.105
	c-11.906,0-21.558-9.651-21.558-21.558l0,0c0-11.906,9.651-21.558,21.558-21.558h226.358
	C440.37,363.789,450.021,373.441,450.021,385.347z"/>
<path style="fill:#4C4C4C;" d="M377.263,73.297v-1.078c0-4.465,3.62-8.084,8.084-8.084s8.084,3.62,8.084,8.084v1.078
	c0,4.465-3.62,8.084-8.084,8.084S377.263,77.761,377.263,73.297z M417.684,81.381c4.465,0,8.084-3.62,8.084-8.084v-1.078
	c0-4.465-3.62-8.084-8.084-8.084c-4.465,0-8.084,3.62-8.084,8.084v1.078C409.6,77.761,413.22,81.381,417.684,81.381z
	 M450.021,81.381c4.465,0,8.084-3.62,8.084-8.084v-1.078c0-4.465-3.62-8.084-8.084-8.084s-8.084,3.62-8.084,8.084v1.078
	C441.937,77.761,445.556,81.381,450.021,81.381z M512,83.537v21.558v301.811c0,28.231-22.969,51.2-51.2,51.2h-42.491l-5.222,17.407
	C406.54,497.336,386.832,512,364.047,512h-97.526c-22.786,0-42.493-14.664-49.041-36.488l-5.222-17.407H51.2
	c-28.231,0-51.2-22.969-51.2-51.2V105.095V83.537c0-28.231,22.969-51.2,51.2-51.2h13.474v-2.695C64.674,13.297,77.971,0,94.316,0
	h86.232c16.345,0,29.642,13.297,29.642,29.642v2.695H460.8C489.031,32.337,512,55.306,512,83.537z M210.189,48.505v48.505h285.642
	V83.537c0-19.316-15.716-35.032-35.032-35.032H210.189z M80.842,97.011h113.179V29.642c0-7.43-6.044-13.474-13.474-13.474H94.316
	c-7.43,0-13.474,6.044-13.474,13.474V97.011z M16.168,83.537v13.474h48.505V48.505H51.2C31.884,48.505,16.168,64.221,16.168,83.537z
	 M350.316,320.674c0-19.316-15.716-35.032-35.032-35.032s-35.032,15.716-35.032,35.032v35.032h70.063V320.674z M280.253,371.874
	v26.947H425.13c0.013,0,0.026,0,0.039,0h0.06h3.234c7.43,0,13.474-6.044,13.474-13.474s-6.044-13.474-13.474-13.474H280.253z
	 M264.084,371.874h-61.979c-7.43,0-13.474,6.044-13.474,13.474s6.044,13.474,13.474,13.474h3.234h0.009c0.042,0,0.084,0,0.126,0
	h58.611V371.874z M414.364,414.989h-198.16l0.608,2.028l9.204,30.681c0,0.002,0.001,0.003,0.001,0.005l6.949,23.163
	c4.48,14.933,17.965,24.965,33.555,24.965h97.526c15.59,0,29.074-10.033,33.554-24.965L414.364,414.989z M495.832,113.179H16.168
	v293.726c0,19.316,15.716,35.032,35.032,35.032h156.208l-8.125-27.085c-15.026-1.426-26.82-14.112-26.82-29.504
	c0-16.345,13.297-29.642,29.642-29.642h61.979v-35.032c0-28.231,22.968-51.2,51.2-51.2c28.232,0,51.2,22.969,51.2,51.2v35.032
	h61.979c16.345,0,29.642,13.297,29.642,29.642c0,15.392-11.794,28.078-26.819,29.504l-8.126,27.085h37.64
	c19.316,0,35.032-15.716,35.032-35.032V113.179z M315.284,431.158c-4.465,0-8.084,3.62-8.084,8.084v32.337
	c0,4.465,3.62,8.084,8.084,8.084c4.465,0,8.084-3.62,8.084-8.084v-32.337C323.368,434.777,319.749,431.158,315.284,431.158z
	 M272.168,431.158c-4.465,0-8.084,3.62-8.084,8.084v32.337c0,4.465,3.62,8.084,8.084,8.084c4.465,0,8.084-3.62,8.084-8.084v-32.337
	C280.253,434.777,276.633,431.158,272.168,431.158z M358.4,431.158c-4.465,0-8.084,3.62-8.084,8.084v32.337
	c0,4.465,3.62,8.084,8.084,8.084c4.465,0,8.084-3.62,8.084-8.084v-32.337C366.484,434.777,362.865,431.158,358.4,431.158z"/>
</svg>